<svg xmlns="http://www.w3.org/2000/svg" width="120" height="80" viewBox="0 0 120 80" fill="none">
  <g opacity="0.42" fill="#E91515">
    <circle cx="24" cy="18" r="1.8"/>
    <circle cx="40" cy="18" r="1.8"/>
    <circle cx="56" cy="18" r="1.8"/>
    <circle cx="72" cy="18" r="1.8"/>
    <circle cx="88" cy="18" r="1.8"/>
    <circle cx="24" cy="34" r="1.8"/>
    <circle cx="40" cy="34" r="1.8"/>
    <circle cx="56" cy="34" r="1.8"/>
    <circle cx="72" cy="34" r="1.8"/>
    <circle cx="88" cy="34" r="1.8"/>
    <circle cx="24" cy="50" r="1.8"/>
    <circle cx="40" cy="50" r="1.8"/>
    <circle cx="56" cy="50" r="1.8"/>
    <circle cx="72" cy="50" r="1.8"/>
    <circle cx="88" cy="50" r="1.8"/>
    <circle cx="24" cy="66" r="1.8"/>
    <circle cx="40" cy="66" r="1.8"/>
    <circle cx="56" cy="66" r="1.8"/>
    <circle cx="72" cy="66" r="1.8"/>
    <circle cx="88" cy="66" r="1.8"/>
  </g>
</svg>