<svg xmlns="http://www.w3.org/2000/svg" width="180" height="180" viewBox="0 0 180 180" fill="none">
  <g opacity="0.55" fill="#9CA3AF">
    <circle cx="28" cy="28" r="2"/>
    <circle cx="46" cy="28" r="2"/>
    <circle cx="64" cy="28" r="2"/>
    <circle cx="82" cy="28" r="2"/>
    <circle cx="100" cy="28" r="2"/>
    <circle cx="118" cy="28" r="2"/>
    <circle cx="136" cy="28" r="2"/>
    <circle cx="28" cy="46" r="2"/>
    <circle cx="46" cy="46" r="2"/>
    <circle cx="64" cy="46" r="2"/>
    <circle cx="82" cy="46" r="2"/>
    <circle cx="100" cy="46" r="2"/>
    <circle cx="118" cy="46" r="2"/>
    <circle cx="136" cy="46" r="2"/>
    <circle cx="28" cy="64" r="2"/>
    <circle cx="46" cy="64" r="2"/>
    <circle cx="64" cy="64" r="2"/>
    <circle cx="82" cy="64" r="2"/>
    <circle cx="100" cy="64" r="2"/>
    <circle cx="118" cy="64" r="2"/>
    <circle cx="136" cy="64" r="2"/>
    <circle cx="28" cy="82" r="2"/>
    <circle cx="46" cy="82" r="2"/>
    <circle cx="64" cy="82" r="2"/>
    <circle cx="82" cy="82" r="2"/>
    <circle cx="100" cy="82" r="2"/>
    <circle cx="118" cy="82" r="2"/>
    <circle cx="136" cy="82" r="2"/>
    <circle cx="28" cy="100" r="2"/>
    <circle cx="46" cy="100" r="2"/>
    <circle cx="64" cy="100" r="2"/>
    <circle cx="82" cy="100" r="2"/>
    <circle cx="100" cy="100" r="2"/>
    <circle cx="118" cy="100" r="2"/>
    <circle cx="136" cy="100" r="2"/>
    <circle cx="28" cy="118" r="2"/>
    <circle cx="46" cy="118" r="2"/>
    <circle cx="64" cy="118" r="2"/>
    <circle cx="82" cy="118" r="2"/>
    <circle cx="100" cy="118" r="2"/>
    <circle cx="118" cy="118" r="2"/>
    <circle cx="136" cy="118" r="2"/>
    <circle cx="28" cy="136" r="2"/>
    <circle cx="46" cy="136" r="2"/>
    <circle cx="64" cy="136" r="2"/>
    <circle cx="82" cy="136" r="2"/>
    <circle cx="100" cy="136" r="2"/>
    <circle cx="118" cy="136" r="2"/>
    <circle cx="136" cy="136" r="2"/>
  </g>
</svg>