<svg width="34" height="34" viewBox="0 0 34 34" fill="none" xmlns="http://www.w3.org/2000/svg">
<g clip-path="url(#clip0_261_29)">
<path d="M0.730469 2.47217H4.57672C5.22458 2.47217 5.79209 2.90646 5.96142 3.53181L10.6069 20.7674C10.7912 21.4482 11.4089 21.9209 12.1142 21.9209H29.3067C30.0124 21.9209 30.6249 21.4338 30.7837 20.7461L33.2427 10.0979C33.3919 9.45206 32.903 8.83488 32.2402 8.83216L7.36054 8.73189" stroke="white" stroke-width="1.5" stroke-miterlimit="10" stroke-linecap="round" stroke-linejoin="round"/>
<path d="M30.0492 25.6857H9.70913C8.53593 25.6857 7.57921 24.8613 7.55876 23.8327C7.53777 22.7762 8.51043 21.9108 9.71537 21.9138L12.1142 21.9199" stroke="white" stroke-width="1.5" stroke-miterlimit="10" stroke-linecap="round" stroke-linejoin="round"/>
<path d="M12.6537 31.5281C13.6806 31.5281 14.5131 30.6956 14.5131 29.6687C14.5131 28.6418 13.6806 27.8093 12.6537 27.8093C11.6268 27.8093 10.7943 28.6418 10.7943 29.6687C10.7943 30.6956 11.6268 31.5281 12.6537 31.5281Z" stroke="white" stroke-width="1.5" stroke-miterlimit="10" stroke-linecap="round" stroke-linejoin="round"/>
<path d="M27.0524 31.5273C28.0793 31.5273 28.9118 30.6949 28.9118 29.668C28.9118 28.6411 28.0793 27.8086 27.0524 27.8086C26.0255 27.8086 25.1931 28.6411 25.1931 29.668C25.1931 30.6949 26.0255 31.5273 27.0524 31.5273Z" stroke="white" stroke-width="1.5" stroke-miterlimit="10" stroke-linecap="round" stroke-linejoin="round"/>
</g>
<defs>
<clipPath id="clip0_261_29">
<rect width="34" height="34" fill="white"/>
</clipPath>
</defs>
</svg>
