<svg width="34" height="34" viewBox="0 0 34 34" fill="none" xmlns="http://www.w3.org/2000/svg">
<g clip-path="url(#clip0_261_86)">
<path d="M2.71948 13.8444C3.81744 8.91657 7.43638 4.69625 12.5914 3.077L13.9791 2.64111" stroke="white" stroke-width="1.5" stroke-miterlimit="10" stroke-linecap="round" stroke-linejoin="round"/>
<path d="M10.3356 0.730469L13.9847 2.63991L12.0828 6.29299" stroke="white" stroke-width="1.5" stroke-miterlimit="10" stroke-linecap="round" stroke-linejoin="round"/>
<path d="M31.2245 20.1616C30.1262 25.0888 26.5075 29.3085 21.353 30.9276L19.9652 31.3635" stroke="white" stroke-width="1.5" stroke-miterlimit="10" stroke-linecap="round" stroke-linejoin="round"/>
<path d="M23.6059 33.2695L19.9568 31.36L21.8587 27.707" stroke="white" stroke-width="1.5" stroke-miterlimit="10" stroke-linecap="round" stroke-linejoin="round"/>
<path d="M13.8363 31.2777C8.91639 30.172 4.69966 26.5429 3.07655 21.3784L2.63867 19.9844" stroke="white" stroke-width="1.5" stroke-miterlimit="10" stroke-linecap="round" stroke-linejoin="round"/>
<path d="M0.736816 23.6271L2.63862 19.9741L6.28778 21.8835" stroke="white" stroke-width="1.5" stroke-miterlimit="10" stroke-linecap="round" stroke-linejoin="round"/>
<path d="M20.1066 2.72998C25.0269 3.83598 29.2438 7.46594 30.8663 12.6313C30.8666 12.632 30.8668 12.6327 30.867 12.6335L31.3136 14.0554" stroke="white" stroke-width="1.5" stroke-miterlimit="10" stroke-linecap="round" stroke-linejoin="round"/>
<path d="M33.2631 10.3164L31.3138 14.0608L27.5734 12.1036" stroke="white" stroke-width="1.5" stroke-miterlimit="10" stroke-linecap="round" stroke-linejoin="round"/>
<path d="M17.0871 9.5625L13.7131 16.9985H20.2868L17.0871 24.4375" stroke="white" stroke-width="1.5" stroke-miterlimit="10" stroke-linecap="round" stroke-linejoin="round"/>
</g>
<defs>
<clipPath id="clip0_261_86">
<rect width="34" height="34" fill="white"/>
</clipPath>
</defs>
</svg>
