<svg width="34" height="34" viewBox="0 0 34 34" fill="none" xmlns="http://www.w3.org/2000/svg">
<g clip-path="url(#clip0_261_51)">
<path d="M0.730469 16.46V24.561C0.730469 25.754 2.42303 26.7213 4.51091 26.7213C6.59879 26.7213 8.29135 25.754 8.29135 24.561V16.46" stroke="white" stroke-width="1.5" stroke-miterlimit="22.9256" stroke-linecap="round" stroke-linejoin="round"/>
<path d="M4.51091 18.6201C6.59879 18.6201 8.29135 17.6529 8.29135 16.4598C8.29135 15.2667 6.59879 14.2996 4.51091 14.2996C2.42303 14.2996 0.730469 15.2667 0.730469 16.4598C0.730469 17.6529 2.42303 18.6201 4.51091 18.6201Z" stroke="white" stroke-width="1.5" stroke-miterlimit="22.9256" stroke-linecap="round" stroke-linejoin="round"/>
<path d="M13.2195 11.0593V24.561C13.2195 25.754 14.912 26.7212 17 26.7212C19.0879 26.7212 20.7805 25.754 20.7805 24.561V11.0593" stroke="white" stroke-width="1.5" stroke-miterlimit="10" stroke-linecap="round" stroke-linejoin="round"/>
<path d="M17 13.2194C19.0879 13.2194 20.7805 12.2523 20.7805 11.0592C20.7805 9.86611 19.0879 8.89893 17 8.89893C14.9121 8.89893 13.2195 9.86611 13.2195 11.0592C13.2195 12.2523 14.9121 13.2194 17 13.2194Z" stroke="white" stroke-width="1.5" stroke-miterlimit="10" stroke-linecap="round" stroke-linejoin="round"/>
<path d="M25.7086 5.65869V24.561C25.7086 25.7541 27.4011 26.7213 29.489 26.7213C31.5769 26.7213 33.2695 25.7541 33.2695 24.561V5.65869" stroke="white" stroke-width="1.5" stroke-miterlimit="22.9256" stroke-linecap="round" stroke-linejoin="round"/>
<path d="M29.4891 7.81881C31.5769 7.81881 33.2695 6.85163 33.2695 5.65855C33.2695 4.46547 31.5769 3.49829 29.4891 3.49829C27.4012 3.49829 25.7086 4.46547 25.7086 5.65855C25.7086 6.85163 27.4012 7.81881 29.4891 7.81881Z" stroke="white" stroke-width="1.5" stroke-miterlimit="22.9256" stroke-linecap="round" stroke-linejoin="round"/>
<path d="M15.9199 30.5017H18.0802" stroke="white" stroke-width="1.5" stroke-miterlimit="10" stroke-linecap="round" stroke-linejoin="round"/>
<path d="M28.4089 30.5017H30.5692" stroke="white" stroke-width="1.5" stroke-miterlimit="10" stroke-linecap="round" stroke-linejoin="round"/>
<path d="M3.43079 30.5017H5.59105" stroke="white" stroke-width="1.5" stroke-miterlimit="10" stroke-linecap="round" stroke-linejoin="round"/>
</g>
<defs>
<clipPath id="clip0_261_51">
<rect width="34" height="34" fill="white"/>
</clipPath>
</defs>
</svg>
