<svg xmlns="http://www.w3.org/2000/svg" version="1.1" xmlns:xlink="http://www.w3.org/1999/xlink" width="512" height="512" x="0" y="0" viewBox="0 0 512 512" style="enable-background:new 0 0 512 512" xml:space="preserve"><g><path d="M14.909 89.422V30.015c0-11.046 8.954-20 20-20h273.178M399.532 346.677V482c0 11.046-8.954 20-20 20H34.909c-11.046 0-20-8.954-20-20V180.542M399.532 101.433v166.254M399.52 101.433h-76.622c-8.18 0-14.81-6.631-14.81-14.811V10l91.432 91.433zM324.864 141.433h-99.342M324.864 195.53h-99.342M324.864 249.628h-99.342M324.864 303.725H89.577M332.177 357.823h-242.6M331.12 411.92H89.58" style="stroke-width:20;stroke-linecap:round;stroke-linejoin:round;stroke-miterlimit:10;" fill="none" stroke="#ffffff" stroke-width="20" stroke-linecap="round" stroke-linejoin="round" stroke-miterlimit="10" data-original="#000000" opacity="1"></path><circle cx="136.703" cy="167.15" r="25.717" style="stroke-width:20;stroke-linecap:round;stroke-linejoin:round;stroke-miterlimit:10;" fill="none" stroke="#ffffff" stroke-width="20" stroke-linecap="round" stroke-linejoin="round" stroke-miterlimit="10" data-original="#000000" opacity="1"></circle><path d="M166.197 249.898h-58.988c-5.523 0-10-4.477-10-10v-9.782c0-20.572 16.677-37.25 37.25-37.25h4.488c20.572 0 37.25 16.677 37.25 37.25v9.782c0 5.523-4.477 10-10 10zM14.909 135.063h0M339.857 354.414l34.249 24.475 122.984-172.1h0c-19.275-13.232-45.596-8.596-59.19 10.426l-98.043 137.199z" style="stroke-width:20;stroke-linecap:round;stroke-linejoin:round;stroke-miterlimit:10;" fill="none" stroke="#ffffff" stroke-width="20" stroke-linecap="round" stroke-linejoin="round" stroke-miterlimit="10" data-original="#000000" opacity="1"></path><path d="m339.857 354.414 34.249 24.475s-34.018 41.637-48.32 31.417c-14.302-10.221 14.071-55.892 14.071-55.892zM413.648 254.754l32.307 23.086" style="stroke-width:20;stroke-linecap:round;stroke-linejoin:round;stroke-miterlimit:10;" fill="none" stroke="#ffffff" stroke-width="20" stroke-linecap="round" stroke-linejoin="round" stroke-miterlimit="10" data-original="#000000" opacity="1"></path></g></svg>