<svg width="34" height="34" viewBox="0 0 34 34" fill="none" xmlns="http://www.w3.org/2000/svg">
<path d="M21.7812 9.5625C23.2483 9.5625 24.4375 8.37326 24.4375 6.90625C24.4375 5.43924 23.2483 4.25 21.7812 4.25C20.3142 4.25 19.125 5.43924 19.125 6.90625C19.125 8.37326 20.3142 9.5625 21.7812 9.5625Z" stroke="white" stroke-width="1.5" stroke-linecap="round" stroke-linejoin="round"/>
<path d="M26.5625 27.625C28.9097 27.625 30.8125 25.7222 30.8125 23.375C30.8125 21.0278 28.9097 19.125 26.5625 19.125C24.2153 19.125 22.3125 21.0278 22.3125 23.375C22.3125 25.7222 24.2153 27.625 26.5625 27.625Z" stroke="white" stroke-width="1.5" stroke-linecap="round" stroke-linejoin="round"/>
<path d="M7.4375 27.625C9.78471 27.625 11.6875 25.7222 11.6875 23.375C11.6875 21.0278 9.78471 19.125 7.4375 19.125C5.09029 19.125 3.1875 21.0278 3.1875 23.375C3.1875 25.7222 5.09029 27.625 7.4375 27.625Z" stroke="white" stroke-width="1.5" stroke-linecap="round" stroke-linejoin="round"/>
<path d="M25.5 14.875H20.1875L15.9375 10.625L11.6875 14.875L17 20.1875V26.5625" stroke="white" stroke-width="1.5" stroke-linecap="round" stroke-linejoin="round"/>
</svg>
