<svg width="34" height="35" viewBox="0 0 34 35" fill="none" xmlns="http://www.w3.org/2000/svg">
<g clip-path="url(#clip0_261_106)">
<path d="M23.5561 33.7696H10.4439C8.65598 33.7696 7.20667 32.3202 7.20667 30.5323V16.2215C7.20667 15.0949 7.65232 14.0141 8.44634 13.215L15.98 5.63269C16.5423 5.06677 17.4578 5.06677 18.0201 5.63269L25.5538 13.215C26.3478 14.0141 26.7935 15.0949 26.7935 16.2215V30.5323C26.7934 32.3202 25.344 33.7696 23.5561 33.7696Z" stroke="white" stroke-width="1.5" stroke-miterlimit="10" stroke-linecap="round" stroke-linejoin="round"/>
<path d="M17 8.54411V1.23047" stroke="white" stroke-width="1.5" stroke-miterlimit="10" stroke-linecap="round" stroke-linejoin="round"/>
<path d="M17 26.5107L19.5577 23.8975C21.5344 21.878 21.5344 18.6037 19.5577 16.5842L17 13.9709L14.4423 16.5841C12.4657 18.6037 12.4657 21.8779 14.4423 23.8975L17 26.5107Z" stroke="white" stroke-width="1.5" stroke-miterlimit="10" stroke-linecap="round" stroke-linejoin="round"/>
<path d="M17 20.8855V28.798" stroke="white" stroke-width="1.5" stroke-miterlimit="10" stroke-linecap="round" stroke-linejoin="round"/>
</g>
<defs>
<clipPath id="clip0_261_106">
<rect width="34" height="34" fill="white" transform="translate(0 0.5)"/>
</clipPath>
</defs>
</svg>
