<svg width="34" height="34" viewBox="0 0 34 34" fill="none" xmlns="http://www.w3.org/2000/svg">
<g clip-path="url(#clip0_261_74)">
<path d="M21.3794 14.9487V6.7439" stroke="white" stroke-width="1.5" stroke-miterlimit="10" stroke-linecap="round" stroke-linejoin="round"/>
<path d="M21.3794 8.7952H23.4306C26.8291 8.7952 29.5842 6.04014 29.5842 2.6416H27.533C24.1344 2.64154 21.3794 5.3966 21.3794 8.7952Z" stroke="white" stroke-width="1.5" stroke-miterlimit="10" stroke-linecap="round" stroke-linejoin="round"/>
<path d="M21.3794 8.7952H19.3281C15.9296 8.7952 13.1745 6.04014 13.1745 2.6416H15.2258C18.6243 2.64154 21.3794 5.3966 21.3794 8.7952Z" stroke="white" stroke-width="1.5" stroke-miterlimit="10" stroke-linecap="round" stroke-linejoin="round"/>
<path d="M6.88406 21.1025C6.88406 21.1025 8.85753 19.0513 11.1232 19.0513C13.389 19.0513 15.2257 21.1025 15.2257 21.1025H19.3281C21.5936 21.1025 23.4306 22.939 23.4306 25.2045C23.4306 25.2046 23.4306 25.2047 23.4306 25.2049" stroke="white" stroke-width="1.5" stroke-miterlimit="10" stroke-linecap="round" stroke-linejoin="round"/>
<path d="M6.88407 29.3074H0.730469V21.1025H6.88407V29.3074ZM6.88407 29.3074L13.1745 31.3586H23.3522C34.3389 22.2383 31.0898 24.9022 33.2695 23.1498C31.7652 21.3448 29.1008 21.0866 27.2827 22.575C26.528 23.1929 25.7313 24.038 24.3293 25.2049H16.2513" stroke="white" stroke-width="1.5" stroke-miterlimit="10" stroke-linecap="round" stroke-linejoin="round"/>
<path d="M13.8258 19.9444C15.0751 17.0078 17.9867 14.9487 21.3793 14.9487C25.4062 14.9487 28.7212 17.6723 29.4172 21.4983" stroke="white" stroke-width="1.5" stroke-miterlimit="10" stroke-linecap="round" stroke-linejoin="round"/>
</g>
<defs>
<clipPath id="clip0_261_74">
<rect width="34" height="34" fill="white"/>
</clipPath>
</defs>
</svg>
